<svg xmlns="http://www.w3.org/2000/svg" width="1200" height="630" viewBox="0 0 1200 630" role="img" aria-labelledby="title desc">
  <title id="title">Sourabh Sharma portfolio preview</title>
  <desc id="desc">A warm portfolio card for Sourabh Sharma, full-stack developer.</desc>
  <defs>
    <linearGradient id="bg" x1="0" y1="0" x2="1" y2="1">
      <stop offset="0" stop-color="#fff8ee"/>
      <stop offset=".52" stop-color="#f7ecdb"/>
      <stop offset="1" stop-color="#d8f5ed"/>
    </linearGradient>
    <filter id="shadow" x="-20%" y="-20%" width="140%" height="140%">
      <feDropShadow dx="0" dy="26" stdDeviation="28" flood-color="#202c2b" flood-opacity=".16"/>
    </filter>
  </defs>
  <rect width="1200" height="630" fill="url(#bg)"/>
  <circle cx="1040" cy="96" r="172" fill="#ffb8a7" opacity=".58"/>
  <circle cx="118" cy="548" r="205" fill="#a9e8d6" opacity=".58"/>
  <g opacity=".14" stroke="#202c2b">
    <path d="M0 118H1200M0 236H1200M0 354H1200M0 472H1200"/>
    <path d="M150 0V630M300 0V630M450 0V630M600 0V630M750 0V630M900 0V630M1050 0V630"/>
  </g>
  <g filter="url(#shadow)">
    <rect x="92" y="86" width="1016" height="458" rx="38" fill="#fffaf2" stroke="#202c2b" stroke-opacity=".1"/>
    <rect x="140" y="134" width="92" height="92" rx="26" fill="#202c2b"/>
    <circle cx="215" cy="153" r="15" fill="#ffb8a7"/>
    <text x="186" y="190" text-anchor="middle" font-family="Arial, sans-serif" font-size="34" font-weight="900" fill="#fff8ee">XS</text>
    <text x="140" y="300" font-family="Georgia, serif" font-size="82" font-weight="800" fill="#202c2b">Sourabh Sharma</text>
    <text x="145" y="365" font-family="Arial, sans-serif" font-size="30" font-weight="700" fill="#45504e">Full-Stack Developer - Next.js, React, TypeScript, Supabase</text>
    <text x="145" y="430" font-family="Arial, sans-serif" font-size="24" font-weight="700" fill="#6c7774">Building production-ready apps from Gurgaon, India.</text>
    <rect x="145" y="470" width="192" height="44" rx="22" fill="#a9e8d6"/>
    <text x="241" y="499" text-anchor="middle" font-family="Arial, sans-serif" font-size="17" font-weight="900" fill="#202c2b">VIEW PORTFOLIO</text>
  </g>
</svg>
